<svg xmlns="http://www.w3.org/2000/svg" viewBox="0 0 259.92 232.65"><title>Asset 28</title><g id="Layer_2" data-name="Layer 2"><g id="Layer_2-2" data-name="Layer 2"><path d="M17.28,131.29C7.92,103.75,7,61.63,31.2,32c33-40.4,92.5-32.85,129.07-28.21,21.2,2.69,43,5.75,63.76,22.8,31.39,25.79,35.18,62.9,35.55,67.24,4,46.58-28.19,77.9-37.1,86.56C216,186.71,186.88,215,145.58,214a90.56,90.56,0,0,1-24-3.86C110,224.6,91.77,231.78,74.09,228.68,51.9,224.78,41.16,206.53,39.7,204a61.34,61.34,0,0,0,25.5-.78c6.85-1.69,12.59-3.11,13.14-6.18,1.09-6.06-19.48-10.29-36.32-25.12C26.41,158.14,20.63,141.13,17.28,131.29Z" fill="#facad5"/><path d="M120.89,212.56c-27.3,0-53.73-8.83-73.72-24.85a124,124,0,0,1-37-51c-8.49-22.18-9.1-44.08-1.77-63.33L9.94,74l-1.53-.58C28.74,20,101.73,10.7,145.83,17.48c17,2.61,62.22,9.56,82.36,48,9.11,17.4,11.23,38.05,6.11,59.72a118.92,118.92,0,0,1-26.44,50.73c-18.7,20.73-46.9,33.95-77.38,36.27Q125.68,212.56,120.89,212.56ZM119.23,18.81c-41.38,0-91.72,13.65-107.75,55.75-15.22,40,8.09,86.81,37.75,110.59C94.34,221.31,167.32,216,205.42,173.73c23.82-26.41,38.29-71.55,19.86-106.72-19.37-37-63.38-43.74-79.95-46.29A173,173,0,0,0,119.23,18.81Z" fill="#231f20"/><path d="M69.84,232.65a36.46,36.46,0,0,1-4.66-.3c-13.62-1.75-22.69-10.62-26.89-15.74l-3.82-4.67L40.13,214c11,4.07,22.54,2.26,30-4.72a26.23,26.23,0,0,0,7.69-14.51,1.64,1.64,0,0,1,3.23.59,29.48,29.48,0,0,1-8.68,16.33c-7.08,6.6-17.29,9.1-27.64,7A37.48,37.48,0,0,0,65.6,229.09c17.14,2.2,35.06-9.18,43.58-27.68a1.64,1.64,0,0,1,3,1.38C103.81,220.92,86.89,232.65,69.84,232.65Z" fill="#231f20"/><path d="M161.8,12.4c8.49-.66,17.11-1.39,25.27,1.63C195,17,202.41,22.55,210.66,24.44a1.18,1.18,0,0,0,.9-2.14c-4-3-9.17-4.67-13.71-6.73a109.41,109.41,0,0,0-11-4.69C178.74,8.21,170.15,9,161.8,10c-1.52.18-1.59,2.57,0,2.44Z" fill="#231f20"/><path d="M32.76,187.36c-6.06-3.56-12.32-7-17.83-11.44-5.79-4.62-9.2-10-12.95-16.27a1.07,1.07,0,0,0-1.94.82c3.5,14.11,20.07,22.53,32,28.2.87.41,1.62-.81.76-1.31Z" fill="#231f20"/><path d="M37,190.92a23.72,23.72,0,0,0,4.38,2.43c1.28.56,2.64,1.32,4.06,1.19a.65.65,0,0,0,.45-1.1c-1.06-1-2.6-1.34-3.94-1.9s-2.94-1.26-4.43-1.84c-.76-.29-1.09.82-.52,1.22Z" fill="#231f20"/></g></g></svg>